<svg id="Capa_1" enable-background="new 0 0 512 512" height="512" viewBox="0 0 512 512" width="512" xmlns="http://www.w3.org/2000/svg"><path d="m361 136v65h-30v-65c0-41.35-33.64-75-75-75s-75 33.65-75 75v65h-30v-65c0-57.9 47.1-105 105-105s105 47.1 105 105z" fill="#165771"/><path d="m361 136v65h-30v-65c0-41.35-33.64-75-75-75v-30c57.9 0 105 47.1 105 105z" fill="#0c3f60"/><path d="m91.03 196.936c-51.315 6.837-91.03 50.904-91.03 104.064v75c0 53.15 39.7 97.21 91 104.06.01.001.02.003.03.004 1.192-1.05 1.778-1.566 2.97-2.616v-277.896z" fill="#fed941"/><path d="m417.45 199.894v277.212c1.367 1.197 2.037 1.783 3.405 2.98 51.308-6.8 91.145-50.819 91.145-104.086v-75c0-53.249-39.809-97.287-91.146-104.086-1.367 1.197-2.037 1.783-3.404 2.98z" fill="#fcbe29"/><path d="m121 481h270.45c.781-.781 1.219-1.219 2-2v-281c-.781-.781-1.219-1.219-2-2h-270.45c-1.172 1.172-1.828 1.828-3 3v279z" fill="#19c0ef"/><path d="m393.45 198v281c-.781.781-1.219 1.219-2 2h-135.45v-285h135.45z" fill="#159be1"/><path d="m421 196.94v283.12c-4.58.62-9.25.94-14 .94h-16v-285c16.983 0 21.438-.219 30 .94z" fill="#bcdcfe"/><path d="m121 196v285h-16c-4.75 0-9.42-.32-14-.94v-283.12c4.58-.62 9.25-.94 14-.94z" fill="#e0f4fe"/><path d="m316 331h-120c-8.28 0-15 8.58-15 19.17v130.83h150v-130.83c0-10.59-6.72-19.17-15-19.17z" fill="#fed941"/><path d="m316 331h-60v150h75v-130.83c0-10.59-6.72-19.17-15-19.17z" fill="#fcbe29"/></svg>